<svg width="29" height="28" viewBox="0 0 29 28" fill="none" xmlns="http://www.w3.org/2000/svg">
<g id="Icon" clip-path="url(#clip0_1_297)">
<path id="Vector" d="M7.33937 10.3086C7.24822 10.3086 7.15708 10.3223 7.06593 10.3496C6.97479 10.377 6.88364 10.418 6.7925 10.4727C6.71958 10.5273 6.65122 10.5911 6.58742 10.6641C6.52362 10.737 6.47349 10.819 6.43703 10.9102C6.40057 10.9831 6.37778 11.0697 6.36867 11.1699C6.35955 11.2702 6.36411 11.3659 6.38234 11.457C6.40057 11.5482 6.43247 11.6348 6.47804 11.7168C6.52362 11.7988 6.58286 11.8763 6.65578 11.9492C6.72869 12.0221 6.80617 12.0814 6.8882 12.127C6.97023 12.1725 7.05682 12.2044 7.14796 12.2227C7.23911 12.2409 7.33481 12.2454 7.43507 12.2363C7.53533 12.2272 7.63104 12.2044 7.72218 12.168C7.7951 12.1315 7.87257 12.0814 7.95461 12.0176C8.03664 11.9538 8.09588 11.8854 8.13234 11.8125C8.18703 11.7214 8.22804 11.6302 8.25539 11.5391C8.28273 11.4479 8.2964 11.3568 8.2964 11.2656C8.2964 11.138 8.27362 11.015 8.22804 10.8965C8.18247 10.778 8.11411 10.6732 8.02296 10.582C7.93182 10.4909 7.827 10.4225 7.70851 10.377C7.59002 10.3314 7.46697 10.3086 7.33937 10.3086ZM15.0777 11.2656C15.0777 11.1745 15.064 11.0833 15.0366 10.9922C15.0093 10.901 14.9683 10.8099 14.9136 10.7188C14.8589 10.6458 14.7951 10.5775 14.7222 10.5137C14.6493 10.4499 14.5672 10.3997 14.4761 10.3633C14.4032 10.3268 14.3166 10.304 14.2163 10.2949C14.1161 10.2858 14.0204 10.2904 13.9292 10.3086C13.8381 10.3268 13.7515 10.3587 13.6694 10.4043C13.5874 10.4499 13.5099 10.5091 13.437 10.582C13.3641 10.6549 13.3049 10.7324 13.2593 10.8145C13.2137 10.8965 13.1818 10.9831 13.1636 11.0742C13.1454 11.1654 13.1408 11.2611 13.1499 11.3613C13.159 11.4616 13.1818 11.5573 13.2183 11.6484C13.2547 11.7396 13.3049 11.8216 13.3687 11.8945C13.4325 11.9674 13.5008 12.0312 13.5737 12.0859C13.6649 12.1406 13.756 12.1816 13.8472 12.209C13.9383 12.2363 14.0295 12.25 14.1206 12.25C14.2482 12.25 14.3713 12.2227 14.4898 12.168C14.6083 12.1133 14.7131 12.0404 14.8042 11.9492C14.8954 11.8581 14.9637 11.7533 15.0093 11.6348C15.0549 11.5163 15.0777 11.3932 15.0777 11.2656ZM10.73 2.73438C9.08937 2.73438 7.61281 2.9987 6.30031 3.52734C5.00604 4.05599 3.90773 4.82161 3.00539 5.82422C2.10304 6.82682 1.41489 8.04818 0.940933 9.48828C0.466975 10.9466 0.229996 12.5872 0.229996 14.4102C0.229996 15.194 0.275569 15.9779 0.366714 16.7617C0.45786 17.5456 0.585464 18.3203 0.749527 19.0859C0.804214 19.2865 0.872574 19.4779 0.954605 19.6602C1.03664 19.8424 1.14145 20.0156 1.26906 20.1797C1.39666 20.3438 1.53794 20.4941 1.69289 20.6309C1.84783 20.7676 2.00734 20.8906 2.1714 21C2.40838 21.1276 2.65447 21.2233 2.90968 21.2871C3.16489 21.3509 3.4201 21.3919 3.67531 21.4102C3.82114 21.3919 3.97153 21.3737 4.12648 21.3555C4.28143 21.3372 4.43182 21.3008 4.57765 21.2461C4.92401 21.1367 5.23846 20.9727 5.52101 20.7539C5.80356 20.5352 6.03599 20.2708 6.21828 19.9609C6.4188 19.651 6.55096 19.3229 6.61476 18.9766C6.67856 18.6302 6.68312 18.2747 6.62843 17.9102L6.32765 15.9961C6.27296 15.6497 6.15903 15.3216 5.98586 15.0117C5.81268 14.7018 5.59849 14.4284 5.34328 14.1914C5.06984 13.9727 4.76906 13.7995 4.44093 13.6719C4.11281 13.5443 3.77557 13.4714 3.42921 13.4531H2.1714C2.22609 12.6328 2.37192 11.7122 2.6089 10.6914C2.84588 9.67057 3.27427 8.71354 3.89406 7.82031C4.51385 6.92708 5.37062 6.17969 6.46437 5.57812C7.55812 4.97656 8.98 4.67578 10.73 4.67578C12.48 4.67578 13.9019 4.97656 14.9956 5.57812C16.0894 6.17969 16.9461 6.92708 17.5659 7.82031C18.1857 8.71354 18.6141 9.67057 18.8511 10.6914C19.0881 11.7122 19.2248 12.6328 19.2612 13.4531H18.0034C17.6571 13.4714 17.3198 13.5443 16.9917 13.6719C16.6636 13.7995 16.3719 13.9727 16.1167 14.1914C15.8433 14.4284 15.6245 14.7018 15.4605 15.0117C15.2964 15.3216 15.187 15.6497 15.1323 15.9961L14.8042 17.9102C14.7495 18.2747 14.7586 18.6302 14.8316 18.9766C14.9045 19.3229 15.0321 19.651 15.2144 19.9609C15.3967 20.2526 15.6291 20.5124 15.9116 20.7402C16.1942 20.9681 16.5086 21.1367 16.855 21.2461H16.9644C16.0529 21.8659 15.064 22.349 13.9976 22.6953C12.9312 23.0417 11.842 23.224 10.73 23.2422C10.6024 23.2422 10.4793 23.265 10.3609 23.3105C10.2424 23.3561 10.1375 23.4245 10.0464 23.5156C9.95526 23.6068 9.88234 23.7116 9.82765 23.8301C9.77296 23.9486 9.74562 24.0716 9.74562 24.1992C9.74562 24.3268 9.77296 24.4499 9.82765 24.5684C9.88234 24.6868 9.95526 24.7917 10.0464 24.8828C10.1375 24.974 10.2424 25.0469 10.3609 25.1016C10.4793 25.1562 10.6024 25.1836 10.73 25.1836C11.6415 25.1836 12.6441 25.0469 13.7378 24.7734C14.8133 24.5182 15.8342 24.1354 16.8003 23.625C17.7665 23.1146 18.605 22.4766 19.3159 21.7109C20.0451 20.9453 20.5008 20.0703 20.6831 19.0859C20.8654 18.3203 20.9976 17.5456 21.0796 16.7617C21.1616 15.9779 21.2027 15.194 21.2027 14.4102C21.2027 12.5872 20.9657 10.9557 20.4917 9.51562C20.0178 8.05729 19.3296 6.82682 18.4273 5.82422C17.5249 4.82161 16.4266 4.05599 15.1323 3.52734C13.8381 2.9987 12.3706 2.73438 10.73 2.73438ZM3.40187 15.4219C3.52947 15.4219 3.65252 15.4447 3.77101 15.4902C3.8895 15.5358 3.99432 15.6042 4.08546 15.6953C4.17661 15.7682 4.24953 15.8594 4.30421 15.9688C4.3589 16.0781 4.39536 16.1966 4.41359 16.3242L4.71437 18.2656C4.7326 18.3568 4.7326 18.4525 4.71437 18.5527C4.69614 18.653 4.6688 18.7487 4.63234 18.8398C4.59588 18.931 4.54575 19.013 4.48195 19.0859C4.41815 19.1589 4.34979 19.2227 4.27687 19.2773C4.18572 19.332 4.09458 19.3776 4.00343 19.4141C3.91229 19.4505 3.82114 19.4688 3.73 19.4688C3.62062 19.4688 3.52036 19.4596 3.42921 19.4414C3.33807 19.4232 3.24692 19.3958 3.15578 19.3594C3.10109 19.3229 3.0464 19.2773 2.99171 19.2227C2.93703 19.168 2.89145 19.1133 2.855 19.0586C2.80031 19.0039 2.75929 18.9447 2.73195 18.8809C2.70461 18.8171 2.68182 18.7487 2.66359 18.6758C2.66359 18.6758 2.66359 18.6712 2.66359 18.6621C2.66359 18.653 2.66359 18.6302 2.66359 18.5938C2.55421 18.0469 2.45851 17.5046 2.37648 16.9668C2.29445 16.429 2.24432 15.8867 2.22609 15.3398L3.40187 15.4219ZM19.2612 15.4219C19.243 15.9688 19.1974 16.5111 19.1245 17.0488C19.0516 17.5866 18.9513 18.1289 18.8237 18.6758C18.8055 18.7305 18.7827 18.7897 18.7554 18.8535C18.728 18.9173 18.6961 18.9857 18.6597 19.0586C18.605 19.1133 18.5549 19.1634 18.5093 19.209C18.4637 19.2546 18.4045 19.2956 18.3316 19.332C18.2769 19.3685 18.2176 19.4004 18.1538 19.4277C18.09 19.4551 18.0217 19.4688 17.9487 19.4688C17.8758 19.487 17.8075 19.4961 17.7437 19.4961C17.6799 19.4961 17.6115 19.487 17.5386 19.4688H17.4566C17.329 19.4323 17.215 19.373 17.1148 19.291C17.0145 19.209 16.937 19.1133 16.8823 19.0039C16.8094 18.8945 16.7593 18.7806 16.7319 18.6621C16.7046 18.5436 16.7 18.4206 16.7183 18.293L17.0191 16.3242C17.0373 16.2148 17.0783 16.1055 17.1421 15.9961C17.2059 15.8867 17.2834 15.7865 17.3745 15.6953C17.4657 15.6042 17.5705 15.5358 17.689 15.4902C17.8075 15.4447 17.9305 15.4219 18.0581 15.4219H19.2612ZM11.687 11.2656C11.687 11.1745 11.6734 11.0833 11.646 10.9922C11.6187 10.901 11.5777 10.8099 11.523 10.7188C11.4683 10.6458 11.4045 10.5775 11.3316 10.5137C11.2586 10.4499 11.1766 10.3997 11.0855 10.3633C10.9943 10.3268 10.9032 10.304 10.812 10.2949C10.7209 10.2858 10.6297 10.2904 10.5386 10.3086C10.4474 10.3268 10.3563 10.3587 10.2652 10.4043C10.174 10.4499 10.1011 10.5091 10.0464 10.582C9.97349 10.6549 9.91424 10.7324 9.86867 10.8145C9.82309 10.8965 9.79119 10.9831 9.77296 11.0742C9.75474 11.1654 9.75018 11.2611 9.75929 11.3613C9.76841 11.4616 9.79119 11.5573 9.82765 11.6484C9.86411 11.7396 9.91424 11.8216 9.97804 11.8945C10.0418 11.9674 10.1102 12.0312 10.1831 12.0859C10.256 12.1406 10.3381 12.1816 10.4292 12.209C10.5204 12.2363 10.6206 12.25 10.73 12.25C10.8576 12.25 10.9806 12.2227 11.0991 12.168C11.2176 12.1133 11.3224 12.0404 11.4136 11.9492C11.5047 11.8581 11.5731 11.7533 11.6187 11.6348C11.6642 11.5163 11.687 11.3932 11.687 11.2656Z" fill="#32323B"/>
</g>
<defs>
<clipPath id="clip0_1_297">
<rect width="28.5" height="28" fill="white" transform="matrix(1 0 0 -1 0.229996 28)"/>
</clipPath>
</defs>
</svg>
