<svg width="85" height="25" viewBox="0 0 85 25" fill="none" xmlns="http://www.w3.org/2000/svg">
<g id="&#208;&#145;&#208;&#181;&#208;&#183; &#208;&#189;&#208;&#176;&#208;&#183;&#208;&#178;&#208;&#176;&#208;&#189;&#208;&#184;&#209;&#143; (1) 1">
<path id="Vector" d="M24 17.6C24 18 24.1 18.4 24.6 18.4H27.2C27.7 18.4 27.8 18 27.8 17.6V9.7C27.8 9.2 27.8 8.7 27.7 8.3C27.6 7.9 27.5 7.5 27.4 7.2C27.3 6.9 27.1 6.6 26.9 6.4C26.7 6.2 26.4 6 26.2 5.8C25.9 5.6 25.6 5.5 25.3 5.3C25 5.2 24.6 5.1 24.3 5C23.9 4.9 23.5 4.9 23.1 4.8C22.7 4.8 22.2 4.8 21.6 4.8C18 4.8 16 5.9 15.5 8.1C15.5 8.2 15.5 8.3 15.5 8.4C15.5 8.5 15.5 8.6 15.6 8.6C15.7 8.7 15.7 8.7 15.8 8.8C15.9 8.8 16 8.9 16.1 8.9H18.3C18.9 8.9 18.9 8.7 19.1 8.2C19.2 7.9 19.4 7.7 19.6 7.5C20 7.1 20.6 7 21.4 7C22.2 7 22.8 7.2 23.2 7.5C23.6 7.8 23.8 8.3 23.8 8.9C23.8 9.6 23.6 10.1 22.7 10.1C20.5 10 18.2 10.3 16.9 11C15.6 11.7 14.8 13.2 14.8 14.8C14.8 15.4 14.9 16 15.2 16.5C15.4 17 15.8 17.4 16.2 17.7C16.6 18 17.1 18.3 17.7 18.4C18.3 18.6 18.9 18.7 19.6 18.6C20.5 18.6 21.3 18.5 22.1 18.3C22.8 18.1 24 17.3 24.1 17.2L24 17.6ZM23.9 14.8C23.9 14.8 23.2 16.2 20.9 16.2C20.3 16.2 19.8 16.1 19.3 15.8C18.9 15.5 18.7 15.1 18.7 14.4C18.7 13.6 19 13 19.7 12.7C20.4 12.4 21.7 12.2 22.7 12.2C23.7 12.2 24 12.8 24 13.3C23.9 13.4 23.9 14.8 23.9 14.8ZM0.899976 18.3H3.49998C4.19998 18.3 4.09998 17.5 4.09998 17.5V15.3C2.19998 14.6 0.999976 13.7 0.0999756 12.8V17.4C0.199976 17.6 0.0999755 18.3 0.899976 18.3ZM14.5 5.6C14.5 5 14.4 4.5 14.3 3.9C14.2 3.4 13.9 2.8 13.6 2.4C13.3 1.9 12.9 1.5 12.5 1.2C12.1 0.9 11.6 0.6 11.1 0.5C10.6 0.3 9.99997 0.1 9.39997 0.1C8.69997 0 8.09998 0 7.29998 0H1.29998C0.799976 0 0.199976 0.3 0.199976 1V10.6C0.999976 12.2 2.39998 13.9 4.09998 14.7V12.8C4.09998 11.8 4.89998 11.6 5.19998 11.6H6.99998C9.49998 11.6 11.3 11.1 12.6 10.1C13.9 9.1 14.5 7.6 14.5 5.6ZM10.2 7.3C9.99998 7.6 9.69998 7.9 9.29998 8.1C8.89998 8.3 8.39998 8.4 7.99998 8.4C7.49998 8.4 6.99998 8.5 6.49998 8.5H4.79998C4.39998 8.5 4.09998 8.2 4.09998 7.7V3.8C4.09998 3.7 4.09998 3.6 4.09998 3.6C4.09998 3.5 4.19998 3.4 4.19998 3.4C4.29998 3.3 4.29998 3.3 4.39998 3.3C4.49998 3.3 4.59998 3.3 4.59998 3.3H6.29998C6.89998 3.3 7.39998 3.3 7.89998 3.3C8.29998 3.3 8.79998 3.4 9.19998 3.6C9.59998 3.8 9.89998 4 9.99998 4.4C10.2 4.7 10.3 5.2 10.3 5.9C10.5 6.3 10.4 6.8 10.2 7.3ZM30.9 20.6C30.7 20.6 30.5 20.6 30.3 20.6C30.1 20.6 29.6 20.6 29.6 21V22.8C29.6 23.5 29.9 23.5 30.1 23.6C30.6 23.7 31.2 23.8 31.8 23.8C32.5 23.8 33.1 23.7 33.7 23.4C34.3 23.1 34.8 22.8 35.2 22.3C35.6 21.8 36 21.2 36.3 20.6C36.6 19.9 36.9 19.2 37.2 18.4C37.2 18.4 37.3 18.1 37.6 17.5C37 18 33.9 20.9 30.9 20.6ZM41.3 5.1H39C38.8 5.1 38.6 5.2 38.4 5.3C38.2 5.4 38.1 5.6 38 5.8C37.8 6.3 35.3 13.2 35.3 13.2C35.3 13.2 32.9 6.5 32.7 6C32.5 5.5 32.2 5.1 31.6 5.1H29.4C28.6 5.1 28.6 5.7 28.7 5.9C28.8 6.1 31.7 14.1 32.9 17.2C33.2 17.9 33.3 18.1 33.3 18.4C33.3 18.7 33 19.2 32.8 19.6C32.7 19.7 32.6 19.9 32.5 20C34.7 19.3 37.3 17 38.6 14.4C39.9 10.8 41.6 6.1 41.7 5.8C41.9 5.4 41.9 5.1 41.3 5.1Z" fill="#232225"/>
<path id="Vector_2" d="M71.9 8C70.5 8 69.6 8.9 69.4 10.5H74.3C74.2 9.1 73.4 8 71.9 8Z" fill="#33CCCC"/>
<path id="Vector_3" d="M82.2 10.5C81.7 9.90002 78.6 5.90002 77.5 4.80002C76.2 3.50002 75.1 2.90002 73.9 2.90002H47.5C45.1 2.90002 44.3 3.70002 44.3 6.40002V17.3C44.3 20 44.5 21.2 48 21.2H73.9C75.1 21.2 76.4 20.2 77.3 19.2C78.4 18.1 81.7 14.6 82.2 13.7C82.5 13.2 82.6 12.7 82.6 12.1C82.7 11.5 82.5 10.9 82.2 10.5ZM46.7 6.70002C46.7 6.30002 46.8 6.00002 47.3 6.00002H49.5C50.1 6.00002 50.1 6.30002 50.1 6.70002V6.80002C49 7.40002 47.8 8.00002 46.7 9.50002V6.70002ZM64 17.6H61.7C61.1 17.6 61.2 17.1 61.2 16.9V10.2C61.2 9.40002 61.1 8.90002 60.9 8.60002C60.8 8.40002 60.6 8.30002 60.4 8.20002C60.2 8.10002 60 8.10002 59.8 8.10002C58.6 8.10002 57.8 9.30002 57.4 9.80002V17C57.4 17.2 57.5 17.6 56.8 17.6H54.6C54 17.6 54.1 17.1 54.1 16.9V10.2C54.1 9.40002 54 8.90002 53.8 8.60002C53.6 8.30002 53.2 8.10002 52.7 8.10002C51.4 8.10002 50.7 9.30002 50.3 9.80002V17C50.3 17.2 50.4 17.6 49.7 17.6H47.4C46.8 17.6 46.9 17.1 46.9 16.9V12.5C46.9 9.60002 50.5 6.80002 50.7 6.60002C51.6 5.90002 52.7 5.60002 53.8 5.60002C54.6 5.60002 55.3 5.70002 56 6.10002C56.6 6.50002 57 7.00002 57.3 7.70002C57.8 7.10002 58.4 6.60002 59.1 6.20002C59.7 5.80002 60.4 5.70002 61.1 5.70002C63.7 5.70002 64.9 7.10002 64.9 10V17C64.6 17.2 64.7 17.6 64 17.6ZM76.7 12.5H69.4C69.4 14.4 70.4 15.4 72 15.4C73 15.4 73.6 15 74.1 14.1C74.2 14 74.3 13.9 74.4 13.8C74.5 13.7 74.7 13.7 74.8 13.7H76.7C76.8 13.7 76.8 13.7 76.9 13.7C77 13.7 77 13.8 77 13.8L77.1 13.9C77.1 14 77.1 14 77.1 14.1C76.3 16.2 74.4 17.4 72 17.4C68.5 17.4 66.3 15.1 66.3 11.6C66.3 8.20003 68.7 5.70002 71.9 5.70002C75.2 5.70002 77.3 7.90002 77.4 11.5C77.4 12 77.3 12.5 76.7 12.5Z" fill="#33CCCC"/>
</g>
</svg>
